<?xml version="1.0" standalone="no"?>
<!DOCTYPE svg PUBLIC "-//W3C//DTD SVG 20010904//EN"
 "http://www.w3.org/TR/2001/REC-SVG-20010904/DTD/svg10.dtd">
<svg version="1.0" xmlns="http://www.w3.org/2000/svg"
 width="241.000000pt" height="239.000000pt" viewBox="0 0 241.000000 239.000000"
 preserveAspectRatio="xMidYMid meet">

<g transform="translate(0.000000,239.000000) scale(0.100000,-0.100000)"
fill="#000000" stroke="none">
<path d="M0 1195 l0 -1195 1205 0 1205 0 0 1195 0 1195 -1205 0 -1205 0 0
-1195z m1418 1055 c90 -34 199 -107 255 -169 42 -47 46 -73 21 -148 -19 -58
-166 -360 -223 -459 -22 -39 -41 -74 -41 -79 0 -4 84 78 188 182 206 208 297
283 343 283 17 0 49 -10 72 -21 49 -25 162 -108 195 -143 47 -51 112 -159 129
-214 34 -115 14 -291 -47 -428 -36 -81 -67 -104 -139 -104 -97 0 -468 53 -595
86 -21 5 -27 4 -22 -5 4 -6 12 -11 17 -11 18 0 369 -180 457 -235 122 -75 126
-80 120 -162 -13 -164 -116 -350 -240 -433 -96 -64 -178 -85 -333 -85 -144 0
-187 11 -209 54 -33 64 -67 223 -101 476 -13 97 -26 179 -28 181 -2 3 -7 -26
-11 -63 -12 -117 -56 -388 -77 -470 -33 -133 -45 -151 -102 -168 -64 -19 -202
-19 -291 0 -92 19 -184 64 -240 116 -93 85 -178 261 -192 396 -6 58 -6 59 34
95 56 50 205 136 406 234 94 46 167 83 161 83 -5 0 -28 -4 -50 -9 -146 -33
-474 -80 -563 -80 -79 0 -102 15 -139 90 -87 172 -95 377 -22 521 65 130 271
299 363 299 42 0 134 -76 334 -275 111 -112 202 -201 202 -198 0 2 -26 52 -59
111 -119 217 -204 400 -222 480 -8 36 -7 49 7 71 53 83 226 194 352 226 85 22
193 13 290 -25z"/>
<path d="M1238 1725 c-4 -71 -11 -223 -14 -337 -6 -182 -9 -208 -23 -208 -9 0
-142 38 -296 85 -154 47 -287 85 -295 84 -14 0 410 -158 524 -195 28 -9 55
-20 59 -24 4 -4 -69 -116 -163 -249 -95 -133 -170 -244 -168 -247 2 -2 88 102
191 232 l187 235 112 -143 c61 -79 141 -180 176 -226 117 -152 76 -77 -88 159
-88 128 -157 235 -153 239 4 4 144 56 310 116 167 60 297 110 290 111 -6 2
-149 -40 -317 -91 l-305 -94 -10 342 c-9 318 -11 332 -17 211z"/>
</g>
</svg>
