<?xml version="1.0" encoding="UTF-8" standalone="no"?>
<!-- Created with Inkscape (http://www.inkscape.org/) -->

<svg
   version="1.1"
   id="svg2"
   xml:space="preserve"
   width="246.70599"
   height="70.444"
   viewBox="0 0 246.70599 70.444"
   sodipodi:docname="logo-banpara-fundo-branco.svg"
   inkscape:version="1.1 (c68e22c387, 2021-05-23)"
   xmlns:inkscape="http://www.inkscape.org/namespaces/inkscape"
   xmlns:sodipodi="http://sodipodi.sourceforge.net/DTD/sodipodi-0.dtd"
   xmlns="http://www.w3.org/2000/svg"
   xmlns:svg="http://www.w3.org/2000/svg"><defs
     id="defs6"><clipPath
       clipPathUnits="userSpaceOnUse"
       id="clipPath18"><path
         d="M 0,595.276 H 841.89 V 0 H 0 Z"
         id="path16" /></clipPath><clipPath
       clipPathUnits="userSpaceOnUse"
       id="clipPath34"><path
         d="M 0,595.276 H 841.89 V 0 H 0 Z"
         id="path32" /></clipPath><clipPath
       clipPathUnits="userSpaceOnUse"
       id="clipPath42"><path
         d="M 0,0 H 540.654 V 129.638 H 0 Z"
         id="path40" /></clipPath><clipPath
       clipPathUnits="userSpaceOnUse"
       id="clipPath86"><path
         d="M 0,0 H 841.89 V 595.276 H 0 Z"
         id="path84" /></clipPath><clipPath
       clipPathUnits="userSpaceOnUse"
       id="clipPath140"><path
         d="M 0,0 H 841.89 V 595.276 H 0 Z"
         id="path138" /></clipPath><clipPath
       clipPathUnits="userSpaceOnUse"
       id="clipPath194"><path
         d="M 0,0 H 841.89 V 595.276 H 0 Z"
         id="path192" /></clipPath><clipPath
       clipPathUnits="userSpaceOnUse"
       id="clipPath258"><path
         d="M 0,0 H 841.89 V 595.276 H 0 Z"
         id="path256" /></clipPath><clipPath
       clipPathUnits="userSpaceOnUse"
       id="clipPath308"><path
         d="M 0,0 H 841.89 V 595.276 H 0 Z"
         id="path306" /></clipPath><clipPath
       clipPathUnits="userSpaceOnUse"
       id="clipPath358"><path
         d="M 0,0 H 841.89 V 595.276 H 0 Z"
         id="path356" /></clipPath><clipPath
       clipPathUnits="userSpaceOnUse"
       id="clipPath408"><path
         d="M 0,0 H 841.89 V 595.276 H 0 Z"
         id="path406" /></clipPath><clipPath
       clipPathUnits="userSpaceOnUse"
       id="clipPath458"><path
         d="M 0,0 H 841.89 V 595.276 H 0 Z"
         id="path456" /></clipPath></defs><sodipodi:namedview
     id="namedview4"
     pagecolor="#ffffff"
     bordercolor="#999999"
     borderopacity="1"
     inkscape:pageshadow="0"
     inkscape:pageopacity="0"
     inkscape:pagecheckerboard="0"
     showgrid="false"
     inkscape:snap-bbox="true"
     inkscape:snap-bbox-edge-midpoints="true"
     inkscape:snap-bbox-midpoints="true"
     inkscape:bbox-paths="true"
     inkscape:bbox-nodes="true"
     inkscape:zoom="3.0290525"
     inkscape:cx="169.69003"
     inkscape:cy="89.63199"
     inkscape:window-width="2560"
     inkscape:window-height="1009"
     inkscape:window-x="-8"
     inkscape:window-y="-8"
     inkscape:window-maximized="1"
     inkscape:current-layer="g8" /><g
     id="g8"
     inkscape:groupmode="layer"
     inkscape:label="manual_de_marca_banpar__-_2019"
     transform="matrix(1.3333333,0,0,-1.3333333,0,793.70133)"><g
       id="g402"><g
         id="g404"
         clip-path="url(#clipPath408)"><g
           id="g410"
           transform="translate(351.4527,226.7223)" /><g
           id="g414"
           transform="translate(335.0464,214.3955)" /><g
           id="g418"
           transform="translate(354.8543,216.742)" /><g
           id="g422"
           transform="translate(365.0693,231.5434)" /><g
           id="g426"
           transform="translate(365.0226,213.1015)" /><g
           id="g430"
           transform="translate(513.4596,201.3038)" /><g
           id="g434"
           transform="translate(443.4894,217.8532)" /><g
           id="g438"
           transform="translate(421.7283,211.287)" /><g
           id="g442"
           transform="translate(484.7891,211.2847)" /><g
           id="g446"
           transform="translate(507.0859,224.4332)" /></g></g><path
       d="m 0,595.27601 h 46.345 v -52.833 H 0 Z"
       style="fill:#ea1c24;fill-opacity:1;fill-rule:nonzero;stroke:none"
       id="path400" /><path
       d="m 23.0227,581.07331 c -4.143,5.015 -16.1100001,2.213 -16.4060001,2.138 v -8.393 c 9.6920001,3.083 17.1260001,2.065 17.1260001,2.065 0,0 0.203,0.261 0.298,1.172 0.085,1.642 -0.595,2.538 -1.018,3.018"
       style="fill:#ffffff;fill-opacity:1;fill-rule:nonzero;stroke:none"
       id="path412" /><path
       d="m 6.6163999,568.74651 v -4.839 c 0.967,0.32 9.2200001,3.059 13.8770001,7.895 -6.752,0 -13.0560001,-2.728 -13.8770001,-3.056"
       style="fill:#ffffff;fill-opacity:1;fill-rule:nonzero;stroke:none"
       id="path416" /><path
       d="m 26.4243,571.09302 c -4.149,-5.546 -11.806,-10.339 -19.8200001,-12.956 v -8.095 c 9.7770001,1.322 23.5090001,7.931 24.4890001,15.664 0.454,3.483 -3.756,5.288 -4.669,5.387"
       style="fill:#ffffff;fill-opacity:1;fill-rule:nonzero;stroke:none"
       id="path420" /><path
       d="m 36.6393,585.89442 c -0.814,0.707 -2.416,2.146 -5.773,2.578 -3.357,0.433 -11.568,0.075 -11.568,0.075 0.137,-0.03 12.492,-2.312 9.282,-12.842 2.721,-0.933 5.063,-2.352 6.571,-4.88 3.478,2.27 6.059,9.844 1.488,15.069"
       style="fill:#ffffff;fill-opacity:1;fill-rule:nonzero;stroke:none"
       id="path424" /><path
       d="m 36.5926,567.45252 c 0.007,-0.037 1.503,-9.651 -15.439,-18.414 6.592,0.122 10.26,-0.333 13.203,1.32 0,0 1.838,0.692 3.549,3.105 2.953,4.831 2.102,11.438 -1.313,13.989"
       style="fill:#ffffff;fill-opacity:1;fill-rule:nonzero;stroke:none"
       id="path428" /><path
       d="m 185.02959,555.65481 c -0.059,0.886 -0.192,5.436 -0.253,9.132 -0.03,1.683 -0.005,3.357 -0.037,5.03 -0.022,1.252 0.014,2.446 -0.446,3.63 0,0 -0.772,2.447 -4.662,3.191 -10.728,2.051 -16.47,-3.772 -16.545,-3.828 l -0.008,2.966 -1.39,-0.057 -2.648,0.011 -1.666,0.058 c 0.111,-1.683 0.212,-3.556 0.195,-5.148 -0.015,-1.597 0.084,-13.993 0.015,-14.982 0,0 0.23,0.046 2.902,0.046 2.672,0 2.941,-0.046 2.941,-0.046 -0.08,1.245 -0.138,2.486 -0.172,3.713 -0.035,1.25 -0.373,5.837 1.351,8.7 3.818,6.343 14.51,6.34 14.51,3.379 0,-0.513 0,-1.468 -1.478,-2.074 -0.574,-0.235 -5.655,-1.487 -7.169,-2.001 -2.805,-0.953 -5.988,-2.471 -5.747,-6.171 0.113,-1.726 0.914,-3.306 2.228,-4.395 1.201,-0.996 2.617,-1.296 4.972,-1.336 h 1.283 c 0.724,0 1.3,0.081 1.933,0.139 0.323,0.03 1.109,0.109 1.382,0.156 0.02,0.124 -0.016,-0.072 0.065,0.387 0.149,0.815 0.418,2.299 0.671,3.055 0.015,0.046 -0.029,0.086 -0.073,0.066 -0.429,-0.204 -1.851,-0.514 -3.1,-0.514 h -0.184 c -1.797,0 -3.511,0.549 -3.623,2.251 l -0.009,0.143 c -0.13,1.988 2.138,2.912 3.738,3.379 2.797,0.819 4.262,1.273 5.192,1.774 0.079,-1.234 0.157,-10.219 -0.008,-10.615 z"
       style="fill:#2f368e;fill-opacity:1;fill-rule:nonzero;stroke:none"
       id="path432" /><path
       d="m 115.0594,572.20422 c -0.245,0.757 -0.72,1.458 -1.414,2.105 -0.69,0.633 -1.586,1.102 -2.681,1.397 -1.091,0.294 -2.233,0.443 -3.415,0.443 -0.741,0 -1.452,-0.061 -2.132,-0.172 -0.679,-0.122 -3.713,-0.737 -5.508004,-2.956 l 0.065,2.657 c -0.972,-0.021 -1.884,-0.04 -2.744,-0.04 -0.729,0 -1.707,0.019 -2.931,0.04 0.106,-2.931 -0.16,-20.021 -0.16,-20.021 1.195,0.027 4.786,0.027 5.802,0 -0.064,3.139 -0.082,5.718 -0.041,7.586 0.052,2.108 0.207004,3.615 0.469004,4.528 0.249,0.867 0.622,1.589 1.127,2.175 0.479,0.579 1.058,1.022 1.727,1.321 0.682,0.302 1.414,0.448 2.205,0.448 0.814,0 1.572,-0.161 2.286,-0.487 0.714,-0.327 1.247,-0.804 1.608,-1.433 0.363,-0.627 0.567,-1.458 0.611,-2.488 0.046,-0.917 0.06,-2.792 0.03,-5.623 -0.022,-2.832 -0.06,-4.893 -0.117,-6.035 1.017,0.026 4.693,0.026 5.742,0 -0.052,1.345 -0.079,13.789 -0.094,14.146 -0.041,0.85 -0.189,1.655 -0.435,2.409"
       style="fill:#2f368e;fill-opacity:1;fill-rule:nonzero;stroke:none"
       id="path436" /><path
       d="m 93.298296,565.63801 c 0.068,3.14 0.086,5.096 0.05,5.865 -0.066,1.414 -0.472,2.493 -1.214,3.255 -0.748996,0.748 -1.759996,1.295 -3.026996,1.637 -1.277,0.346 -2.663,0.519 -4.163,0.519 -1.323,0 -2.697,-0.089 -4.107,-0.265 -1.409,-0.175 -3.028,-0.474 -4.874,-0.905 -0.084,-0.793 -0.145,-1.387 -0.171,-1.783 -0.032,-0.391 -0.118,-1.065 -0.26,-2.035 2.95,1.169 5.66,1.755 8.152,1.755 0.671,0 1.28,-0.069 1.84,-0.214 0.56,-0.139 1.024,-0.394 1.394,-0.76 0.357,-0.358 0.556,-0.806 0.579,-1.329 0.01,-0.267 -0.032,-0.531 -0.139,-0.786 -0.101,-0.255 -0.269,-0.502 -0.501,-0.735 -0.237,-0.236 -0.52,-0.428 -0.849,-0.581 -0.328,-0.142 -0.77,-0.295 -1.321,-0.453 -0.552,-0.153 -1.084,-0.285 -1.596,-0.394 -1.938,-0.413 -3.483,-0.829 -4.652,-1.242 -1.171,-0.405 -2.133,-0.834 -2.738,-1.273 -0.613,-0.438 -1.031,-0.833 -1.405,-1.301 -0.039,-0.051 -0.077,-0.101 -0.116,-0.151 -0.009,0.032 -0.018,0.07 -0.028,0.104 -0.145,0.529 -0.335,1.01 -0.577,1.442 -0.245,0.438 -0.552,0.846 -0.944,1.23 -0.383,0.39 -0.785,0.709 -1.211,0.955 -0.422,0.25 -0.821,0.431 -1.189,0.556 -0.367,0.119 -0.862,0.243 -1.464,0.37 0.653,0.23 1.18,0.445 1.573,0.647 0.388,0.209 0.794,0.488 1.214,0.852 0.418,0.359 0.781,0.802 1.088,1.315 0.307,0.515 0.534,1.093 0.672,1.735 0.148,0.644 0.203,1.433 0.168,2.142 -0.027,0.575 -0.117,1.141 -0.286,1.697 -0.154,0.545 -0.383,1.065 -0.686,1.543 -0.302,0.474 -0.653,0.889 -1.055,1.236 -0.407,0.353 -0.894,0.812 -1.476,1.053 -0.582,0.251 -1.235,0.424 -1.97,0.546 -0.739,0.116 -1.826,0.185 -3.268,0.185 -0.335,0 -0.701,-0.003 -1.093,-0.007 -0.819,-0.008 -10.7,0.003 -10.7,0.003 0,0 0.1,-1.543 0.1,-13.223 0,-11.678 -0.1,-13.18 -0.1,-13.18 l 3.499,0.019 4.688,-0.019 c 0.913,0 1.751,0.006 2.513,0.016 2.393,0.036 4.03,0.128 4.911,0.277 1.161,0.2 2.196,0.594 3.11,1.186 0.825,0.534 1.471,1.235 1.943,2.115 v 0.005 l 0.06,0.107 c 0.135,-0.345 0.303,-0.693 0.504,-1.037 0.57,-0.997 1.423,-1.669 2.547,-2.121 1.127,-0.464 2.55,-0.69 4.268,-0.69 0.501,0 1.028,0.021 1.599,0.061 0.571,0.043 1.31,0.02 2.276,0.185 0.312,1.522 0.615,2.897 0.866,3.662 -0.802,-0.267 -1.452,-0.439 -1.932,-0.502 -0.481,-0.068 -0.938,-0.104 -1.379,-0.104 -0.683,0 -1.282,-0.029 -1.793,0.13 -0.513,0.165 -0.946,0.45 -1.298,0.864 -0.357,0.401 -0.546,0.783 -0.576,1.348 -0.017,0.35 0.032,0.674 0.151,0.98 0.114,0.301 0.308,0.591 0.583,0.866 0.272,0.277 0.619,0.522 1.018,0.747 0.412,0.223 0.869,0.419 1.38,0.597 0.507,0.176 1.191,0.379 2.038,0.612 0.852,0.236 1.442,0.412 1.781,0.523 0.337,0.12 0.64,0.242 0.901,0.376 0.268,0.136 0.653,0.371 1.16,0.707 l -0.03,-5.03 c -0.014,-2.137 -0.08,-4.278 -0.19,-5.904 1.12,0.028 4.779996,0.042 5.825996,0.016 -0.119,3.348 -0.151,6.838 -0.074,9.983 m -30.168996,12.558 c 0.181,0 0.353,0 0.519,-0.005 0.733,-0.019 1.304,-0.077 1.724,-0.18 0.524,-0.118 0.96,-0.319 1.338,-0.588 0.376,-0.278 0.652,-0.62 0.848,-1.038 0.197,-0.423 0.303,-0.866 0.324,-1.335 0.024,-0.483 -0.03,-1.07 -0.174,-1.534 -0.138,-0.468 -0.371,-0.892 -0.701,-1.274 -0.333,-0.392 -0.742,-0.677 -1.237,-0.863 -0.492,-0.187 -0.967,-0.309 -1.422,-0.37 -0.17,-0.025 -0.404,-0.046 -0.7,-0.06 -0.489,-0.023 -1.145,-0.037 -1.97,-0.037 h -3.113 l -0.074,7.284 z m 5.493,-15.884 c -0.098,-0.4 -0.241,-0.763 -0.423,-1.08 -0.184,-0.312 -0.4,-0.58 -0.652,-0.781 -0.249,-0.204 -0.595,-0.391 -1.038,-0.574 -0.445,-0.175 -0.909,-0.298 -1.408,-0.369 -0.372,-0.055 -0.857,-0.087 -1.453,-0.101 -0.193,-0.004 -0.4,-0.004 -0.621,-0.004 h -4.395 l -0.078,7.792 h 4.878 c 0.073,0 0.144,-10e-4 0.216,-0.002 1.001,-0.011 1.757,-0.083 2.278,-0.223 0.549,-0.144 1.03,-0.378 1.456,-0.704 0.417,-0.324 0.743,-0.707 0.972,-1.159 0.225,-0.442 0.355,-0.956 0.383,-1.544 0.02,-0.429 -0.021,-0.845 -0.115,-1.251"
       style="fill:#2f368e;fill-opacity:1;fill-rule:nonzero;stroke:none"
       id="path440" /><path
       d="m 156.3591,565.63572 c 0.068,3.142 0.09,5.094 0.052,5.865 -0.063,1.416 -0.473,2.496 -1.214,3.252 -0.749,0.754 -1.761,1.298 -3.03,1.642 -1.275,0.347 -2.657,0.519 -4.162,0.519 -1.318,0 -2.695,-0.092 -4.102,-0.265 -1.415,-0.18 -3.038,-0.474 -4.875,-0.905 -0.089,-0.796 -0.147,-1.387 -0.175,-1.781 -0.032,-0.391 -0.114,-1.067 -0.259,-2.041 2.951,1.173 5.662,1.757 8.153,1.757 0.672,0 1.283,-0.07 1.839,-0.213 0.564,-0.138 1.024,-0.393 1.395,-0.756 0.356,-0.361 0.552,-0.808 0.58,-1.331 0.013,-0.268 -0.033,-0.531 -0.141,-0.786 -0.098,-0.256 -0.269,-0.503 -0.501,-0.736 -0.236,-0.238 -0.519,-0.43 -0.845,-0.581 -0.332,-0.142 -0.768,-0.295 -1.323,-0.455 -0.553,-0.151 -1.087,-0.279 -1.597,-0.391 -1.939,-0.416 -3.485,-0.83 -4.655,-1.243 -1.166,-0.405 -2.055,-0.835 -2.667,-1.266 -0.369,-0.269 -0.694,-0.542 -0.978,-0.821 0.005,0.287 0,0.57 -0.014,0.859 -0.066,1.414 -0.348,2.766 -0.834,4.058 -0.498,1.29 -1.207,2.43 -2.15,3.415 -0.945,0.977 -2.172,1.679 -3.685,2.094 -1.263,0.353 -2.63,0.555 -4.094,0.613 -0.283,0.01 -0.568,0.016 -0.856,0.016 -1.365,0 -2.737,-0.074 -4.107,-0.212 -1.376,-0.149 -3.31,-0.443 -5.809,-0.884 0.17,-3.625 0.261,-8.333 0.271,-14.142 0.007,-3.936 -0.027,-7.373 -0.101,-9.714 h 5.526 l -0.1,6.292 c 2.307,-1.543 4.214,-1.712 4.983,-1.894 0.064,-0.015 0.127,-0.03 0.193,-0.041 0.709,-0.154 1.418,-0.231 2.142,-0.231 1.325,0 2.535,0.238 3.632,0.715 1.098,0.474 2.045,1.184 2.844,2.239 0.345,0.448 0.642,0.923 0.899,1.422 v 0.006 c 0.153,-0.481 0.367,-0.959 0.64,-1.437 0.572,-0.996 1.426,-1.72 2.552,-2.174 1.127,-0.465 2.545,-0.579 4.27,-0.579 0.495,0 1.025,0.021 1.596,0.06 0.573,0.042 1.312,0.019 2.276,0.187 0.312,1.522 0.619,2.896 0.87,3.662 -0.809,-0.268 -1.455,-0.44 -1.935,-0.503 -0.479,-0.068 -0.939,-0.105 -1.377,-0.105 -0.689,0 -1.286,-0.03 -1.795,0.131 -0.511,0.165 -0.945,0.45 -1.301,0.864 -0.353,0.406 -0.543,0.783 -0.572,1.349 -0.013,0.349 0.031,0.673 0.152,0.977 0.109,0.304 0.304,0.593 0.582,0.868 0.273,0.276 0.616,0.523 1.019,0.745 0.406,0.225 0.867,0.418 1.377,0.596 0.507,0.174 1.19,0.382 2.041,0.615 0.849,0.236 1.439,0.415 1.778,0.523 0.335,0.12 0.639,0.244 0.904,0.374 0.266,0.138 0.653,0.37 1.157,0.712 l -0.029,-5.033 c -0.013,-2.137 -0.087,-4.258 -0.191,-5.888 1.117,0.029 4.811,0.03 5.85,10e-4 -0.116,3.351 -0.174,6.838 -0.099,9.98 m -24.564,-3.108 c -0.396,-1.096 -0.992,-1.878 -1.805,-2.447 -0.8,-0.569 -1.701,-0.851 -2.712,-0.851 -0.068,0 -0.135,0 -0.201,0.003 -0.659,0.028 -1.305,0.19 -1.942,0.479 -0.694,0.322 -1.308,0.728 -1.838,1.343 -0.525,0.614 -0.889,1.291 -1.084,2.022 -0.205,0.729 -0.321,1.498 -0.36,2.295 -0.023,0.442 -0.029,1.14 -0.016,2.076 l 0.019,2.18 c 0.009,0.508 0.049,1.121 0.111,1.824 1.59,0.518 3.079,0.784 4.458,0.784 0.224,0 0.438,-0.011 0.652,-0.03 0.805,-0.07 1.547,-0.276 2.229,-0.623 0.856,-0.429 1.554,-1.119 2.093,-2.068 0.541,-0.942 0.848,-2.107 0.91,-3.48 0.059,-1.238 -0.109,-2.409 -0.514,-3.507"
       style="fill:#2f368e;fill-opacity:1;fill-rule:nonzero;stroke:none"
       id="path444" /><path
       d="m 178.6559,578.78421 1.417,1.518 c 0.381,0.423 1.723,1.758 1.723,1.758 h -5.157 c 0,0 -0.347,-0.688 -0.534,-1.067 -0.183,-0.384 -0.336,-0.706 -0.464,-0.974 l -0.461,-0.982 c 1.088,0.002 2.247,-0.074 3.476,-0.253"
       style="fill:#2f368e;fill-opacity:1;fill-rule:nonzero;stroke:none"
       id="path448" /></g></svg>
